# xmcd
#
# Track frame offsets: 
#        150
#        19828
#        42223
#        61633
#        79839
#        103126
#        119681
#        141330
#        162614
#        182646
#        199477
#        219300
#        242685
#        261308
#        279583
#        297992
#
# Disc length: 4229 seconds
#
# Revision: 0
# Processed by: cddbd v1.5.2PL0 Copyright (c) Steve Scherf et al.
# Submitted via: ExactAudioCopyFreeDBPlugin 1.0
#
DISCID=f9108310
DTITLE=群星 - 试音宝典36号
DYEAR=2014
DGENRE=Acid
TTITLE0=我是真的真的爱你
TTITLE1=明天你是否依然爱我
TTITLE2=泪的小花
TTITLE3=思念总在分手后
TTITLE4=亲爱的小孩
TTITLE5=光阴的故事
TTITLE6=难忘的一天
TTITLE7=红河谷
TTITLE8=再回首
TTITLE9=其实你不懂我的心
TTITLE10=美丽心情
TTITLE11=不再让你孤单
TTITLE12=是梦是真
TTITLE13=零时十分
TTITLE14=梨涡浅笑
TTITLE15=偶然
EXTD=
EXTT0=
EXTT1=
EXTT2=
EXTT3=
EXTT4=
EXTT5=
EXTT6=
EXTT7=
EXTT8=
EXTT9=
EXTT10=
EXTT11=
EXTT12=
EXTT13=
EXTT14=
EXTT15=
PLAYORDER=
